<?xml version="1.0" encoding="UTF-8"?>
<svg version="1.1" xmlns="http://www.w3.org/2000/svg" width="256" height="256">
<path d="M0 0 C22.05304502 19.2450486 37.44400428 45.42990362 40.453125 74.8828125 C41.07826458 89.69725341 41.40192475 104.50019228 37.453125 118.8828125 C37.13601562 120.0790625 36.81890625 121.2753125 36.4921875 122.5078125 C27.49489031 152.62642437 6.76141925 176.66920686 -20.55541992 191.77832031 C-47.99633994 206.4821914 -80.71307583 208.87463779 -110.41699219 199.98388672 C-139.21260553 190.71167428 -163.46419683 170.81919651 -177.77954102 144.11743164 C-184.20093498 131.59055102 -189.11091532 117.93340535 -190.546875 103.8828125 C-190.67964844 102.71105469 -190.81242188 101.53929687 -190.94921875 100.33203125 C-193.56353023 71.10461636 -185.80778838 40.01736997 -167.0390625 17.03662109 C-163.69270116 13.1658143 -160.1458789 9.51780644 -156.546875 5.8828125 C-155.93328125 5.20863281 -155.3196875 4.53445312 -154.6875 3.83984375 C-114.97494219 -39.1165616 -42.43747375 -35.27777726 0 0 Z " fill="#2E60B2" transform="translate(203.546875,39.1171875)"/>
<path d="M0 0 C1.0236264 0.00212242 1.0236264 0.00212242 2.06793213 0.00428772 C4.23804184 0.00986541 6.4080467 0.02241371 8.578125 0.03515625 C10.05338392 0.04017414 11.52864447 0.04473654 13.00390625 0.04882812 C16.61205163 0.05897477 20.21997155 0.07855426 23.828125 0.09765625 C23.828125 8.34765625 23.828125 16.59765625 23.828125 25.09765625 C14.203125 25.47265625 14.203125 25.47265625 11.20458984 25.57568359 C4.27395736 25.80932018 4.27395736 25.80932018 -2.171875 28.09765625 C-5.04268746 33.28526473 -4.61651004 39.6693497 -4.796875 45.47265625 C-4.9825 50.73203125 -4.9825 50.73203125 -5.171875 56.09765625 C4.068125 56.09765625 13.308125 56.09765625 22.828125 56.09765625 C22.828125 65.33765625 22.828125 74.57765625 22.828125 84.09765625 C13.588125 84.09765625 4.348125 84.09765625 -5.171875 84.09765625 C-5.171875 107.19765625 -5.171875 130.29765625 -5.171875 154.09765625 C-14.411875 154.09765625 -23.651875 154.09765625 -33.171875 154.09765625 C-33.171875 130.99765625 -33.171875 107.89765625 -33.171875 84.09765625 C-41.091875 84.09765625 -49.011875 84.09765625 -57.171875 84.09765625 C-57.171875 74.85765625 -57.171875 65.61765625 -57.171875 56.09765625 C-49.251875 56.09765625 -41.331875 56.09765625 -33.171875 56.09765625 C-33.22988281 54.07125 -33.28789063 52.04484375 -33.34765625 49.95703125 C-33.38247965 47.95120338 -33.41710371 45.94536739 -33.4465332 43.93945312 C-33.47137603 42.56620559 -33.50526387 41.1930859 -33.54907227 39.8203125 C-33.90978257 28.20968446 -32.1494258 19.00384666 -24.984375 9.66015625 C-18.1371013 2.45249972 -9.64225437 -0.03951744 0 0 Z " fill="#FDFDFE" transform="translate(145.171875,50.90234375)"/>
</svg>
