<?xml version="1.0" encoding="UTF-8"?>
<svg version="1.1" xmlns="http://www.w3.org/2000/svg" width="512" height="512">
<path d="M0 0 C2.74218947 0.00315055 5.48328521 -0.02037171 8.2253418 -0.0456543 C25.16655297 -0.10722185 41.68919974 1.95925553 58.13745117 6.06567383 C59.7065625 6.45408447 59.7065625 6.45408447 61.30737305 6.8503418 C90.90026897 14.38365203 118.3344588 27.74768357 142.57495117 46.31567383 C143.39092773 46.93829102 144.2069043 47.5609082 145.04760742 48.20239258 C151.88854286 53.54721218 158.28152064 59.34621398 164.57495117 65.31567383 C165.07816895 65.79020996 165.58138672 66.26474609 166.09985352 66.75366211 C174.09688661 74.34428439 180.97656797 82.4933814 187.57495117 91.31567383 C188.65583008 92.73879883 188.65583008 92.73879883 189.75854492 94.19067383 C216.20274679 129.65580226 233.38423814 174.90724577 233.81323242 219.43286133 C233.82302628 220.27939774 233.83282013 221.12593414 233.84291077 221.99812317 C234.02138356 241.44455031 233.69960032 260.22112226 229.57495117 279.31567383 C229.25349121 280.80719971 229.25349121 280.80719971 228.92553711 282.32885742 C225.76207783 296.46772454 221.18511819 309.96949594 215.57495117 323.31567383 C215.2686377 324.04947266 214.96232422 324.78327148 214.64672852 325.53930664 C207.56259282 342.21821715 197.75091668 358.0663178 186.57495117 372.31567383 C185.89432617 373.18708008 185.21370117 374.05848633 184.51245117 374.95629883 C146.20801374 422.83684562 90.72706261 454.3932726 29.57495117 461.31567383 C28.75986084 461.40993652 27.94477051 461.50419922 27.10498047 461.60131836 C-32.81587935 467.82556079 -94.30769193 450.58773584 -141.30004883 412.69067383 C-145.67557568 409.0202394 -149.92912497 405.22079457 -154.13598633 401.35864258 C-155.71662744 399.94793387 -157.34612901 398.59077538 -159.01098633 397.28051758 C-161.16812566 395.52478767 -162.88951538 393.80986757 -164.67504883 391.69067383 C-166.54017799 389.49804875 -168.40634646 387.3354961 -170.38208008 385.24145508 C-202.6269664 350.96256851 -221.97624691 304.72546922 -227.42504883 258.31567383 C-227.51931152 257.58058594 -227.61357422 256.84549805 -227.71069336 256.08813477 C-228.63772644 248.14450604 -228.66854736 240.178007 -228.67504883 232.19067383 C-228.67572357 231.4420105 -228.67639832 230.69334717 -228.67709351 229.92199707 C-228.58790854 167.24580461 -203.05677266 111.36767735 -160.42504883 66.31567383 C-159.78696289 65.63504883 -159.14887695 64.95442383 -158.49145508 64.25317383 C-153.54279272 59.12650203 -147.99782707 54.74047429 -142.42504883 50.31567383 C-141.44665039 49.52032227 -140.46825195 48.7249707 -139.46020508 47.90551758 C-130.60884482 40.86237972 -121.19823269 34.99292275 -111.42504883 29.31567383 C-110.80968262 28.95231934 -110.19431641 28.58896484 -109.56030273 28.21459961 C-76.61388714 8.90883182 -37.94128632 -0.09064815 0 0 Z " fill="#49C15C" transform="translate(257.425048828125,23.684326171875)"/>
<path d="M0 0 C1.2065625 0.25523438 2.413125 0.51046875 3.65625 0.7734375 C28.07718889 6.46122028 48.85900836 20.12599826 67 37 C68.09441406 37.97839844 68.09441406 37.97839844 69.2109375 38.9765625 C81.06128164 50.05684818 89.46342083 64.28711957 96 79 C96.42104004 79.93126709 96.42104004 79.93126709 96.85058594 80.88134766 C111.45241396 113.58497073 110.23980829 150.79639155 98 184 C95.95691315 188.92827035 93.56005768 193.63628042 90.95556641 198.2890625 C90.05178988 199.90727044 89.18672721 201.54692446 88.32421875 203.1875 C83.86093877 211.3684046 78.12570848 218.05129557 72 225 C70.99797912 226.24838062 69.99752979 227.49802783 69 228.75 C64.92859485 233.47469652 59.90874013 237.19308729 55 241 C54.1440625 241.67160156 53.288125 242.34320313 52.40625 243.03515625 C34.65360986 256.48331587 14.67738619 264.39615811 -7 269 C-7.99128906 269.22558594 -8.98257813 269.45117188 -10.00390625 269.68359375 C-38.421215 275.17029118 -69.71151244 269.56774637 -95.10546875 256.00390625 C-100.35050139 254.18477887 -105.07195907 255.82735614 -110.0625 257.8125 C-114.06945757 259.32995967 -118.05500139 260.61884162 -122.1875 261.75 C-129.93893183 263.9036503 -137.52983302 266.49031403 -145.15039062 269.06396484 C-151.82230773 271.30587247 -158.49521766 273.38110261 -165.29296875 275.2109375 C-168.02846816 275.94220766 -168.02846816 275.94220766 -170.61328125 277.1640625 C-173.3188931 278.11169087 -174.32843513 277.79713491 -177 277 C-176.06442295 274.16601904 -175.12659191 271.33281627 -174.1875 268.5 C-173.92646484 267.70851563 -173.66542969 266.91703125 -173.39648438 266.1015625 C-171.91448239 261.63726024 -170.35264708 257.21886764 -168.6809082 252.82226562 C-167.71522891 250.23788763 -166.85523338 247.62271568 -166 245 C-164.91204947 241.70330463 -163.81155232 238.42656788 -162.5625 235.1875 C-160.83372276 230.68134293 -159.34654266 226.09362883 -157.84936523 221.5065918 C-156.73267016 218.10611652 -155.52669211 214.79204753 -154.125 211.5 C-151.85189431 204.42811565 -154.74247552 198.77627665 -157.875 192.5 C-161.60397681 184.86447605 -165.08728716 177.50290221 -167.0625 169.1875 C-167.22298828 168.53974609 -167.38347656 167.89199219 -167.54882812 167.22460938 C-168.05375331 165.15421335 -168.52635763 163.07775521 -169 161 C-169.18312744 160.27643311 -169.36625488 159.55286621 -169.55493164 158.80737305 C-171.3568557 151.07253958 -171.35636418 143.33499953 -171.3125 135.4375 C-171.30876877 134.36911392 -171.30876877 134.36911392 -171.30496216 133.27914429 C-171.24720025 122.59649241 -170.91733467 112.34527989 -168 102 C-167.77957031 101.20158691 -167.55914062 100.40317383 -167.33203125 99.58056641 C-157.35838231 64.56065753 -134.52121155 34.49104389 -103 16 C-102.36352539 15.61956543 -101.72705078 15.23913086 -101.07128906 14.84716797 C-71.12345777 -2.84387863 -33.8158489 -8.16979543 0 0 Z " fill="#49C55C" transform="translate(295,117)"/>
<path d="M0 0 C1.2065625 0.25523438 2.413125 0.51046875 3.65625 0.7734375 C28.07718889 6.46122028 48.85900836 20.12599826 67 37 C68.09441406 37.97839844 68.09441406 37.97839844 69.2109375 38.9765625 C81.06128164 50.05684818 89.46342083 64.28711957 96 79 C96.42104004 79.93126709 96.42104004 79.93126709 96.85058594 80.88134766 C111.45241396 113.58497073 110.23980829 150.79639155 98 184 C95.95691315 188.92827035 93.56005768 193.63628042 90.95556641 198.2890625 C90.05178988 199.90727044 89.18672721 201.54692446 88.32421875 203.1875 C83.86093877 211.3684046 78.12570848 218.05129557 72 225 C70.99797912 226.24838062 69.99752979 227.49802783 69 228.75 C64.92859485 233.47469652 59.90874013 237.19308729 55 241 C54.1440625 241.67160156 53.288125 242.34320313 52.40625 243.03515625 C34.65360986 256.48331587 14.67738619 264.39615811 -7 269 C-7.99128906 269.22558594 -8.98257813 269.45117188 -10.00390625 269.68359375 C-38.421215 275.17029118 -69.71151244 269.56774637 -95.10546875 256.00390625 C-100.35050139 254.18477887 -105.07195907 255.82735614 -110.0625 257.8125 C-114.06945757 259.32995967 -118.05500139 260.61884162 -122.1875 261.75 C-129.93893183 263.9036503 -137.52983302 266.49031403 -145.15039062 269.06396484 C-151.82230773 271.30587247 -158.49521766 273.38110261 -165.29296875 275.2109375 C-168.02846816 275.94220766 -168.02846816 275.94220766 -170.61328125 277.1640625 C-173.3188931 278.11169087 -174.32843513 277.79713491 -177 277 C-176.06442295 274.16601904 -175.12659191 271.33281627 -174.1875 268.5 C-173.92646484 267.70851563 -173.66542969 266.91703125 -173.39648438 266.1015625 C-171.91448239 261.63726024 -170.35264708 257.21886764 -168.6809082 252.82226562 C-167.71522891 250.23788763 -166.85523338 247.62271568 -166 245 C-164.91204947 241.70330463 -163.81155232 238.42656788 -162.5625 235.1875 C-160.83372276 230.68134293 -159.34654266 226.09362883 -157.84936523 221.5065918 C-156.73267016 218.10611652 -155.52669211 214.79204753 -154.125 211.5 C-151.85189431 204.42811565 -154.74247552 198.77627665 -157.875 192.5 C-161.60397681 184.86447605 -165.08728716 177.50290221 -167.0625 169.1875 C-167.22298828 168.53974609 -167.38347656 167.89199219 -167.54882812 167.22460938 C-168.05375331 165.15421335 -168.52635763 163.07775521 -169 161 C-169.18312744 160.27643311 -169.36625488 159.55286621 -169.55493164 158.80737305 C-171.3568557 151.07253958 -171.35636418 143.33499953 -171.3125 135.4375 C-171.30876877 134.36911392 -171.30876877 134.36911392 -171.30496216 133.27914429 C-171.24720025 122.59649241 -170.91733467 112.34527989 -168 102 C-167.77957031 101.20158691 -167.55914062 100.40317383 -167.33203125 99.58056641 C-157.35838231 64.56065753 -134.52121155 34.49104389 -103 16 C-102.36352539 15.61956543 -101.72705078 15.23913086 -101.07128906 14.84716797 C-71.12345777 -2.84387863 -33.8158489 -8.16979543 0 0 Z M-122.33007812 59.12304688 C-144.86604656 84.45294824 -150.65371765 116.11992334 -149 149 C-147.32853435 166.15611831 -140.08484524 183.05600016 -129.4921875 196.53125 C-125.56983834 205.64917161 -131.9297588 217.11556579 -135.125 225.9375 C-135.82916306 227.88951336 -136.53067466 229.84230371 -137.22457886 231.79798889 C-137.84781855 233.55375991 -138.48051645 235.30616522 -139.11376953 237.05834961 C-140.19230876 240.1262859 -140.19230876 240.1262859 -140 244 C-135.78146524 243.25792505 -131.75987988 242.05085071 -127.6875 240.75 C-126.99325928 240.53182617 -126.29901855 240.31365234 -125.58374023 240.08886719 C-121.95190324 238.94623005 -118.32800775 237.78228708 -114.7109375 236.59375 C-110.82685439 235.32324705 -106.92192446 234.14840882 -103 233 C-102.19433594 232.73058594 -101.38867188 232.46117187 -100.55859375 232.18359375 C-93.70884925 230.53289631 -87.88812984 234.73468095 -82.0390625 237.8671875 C-58.12959315 250.67061279 -27.07486574 253.5697187 -1 246 C16.01073828 240.8231327 31.2391584 233.33134129 45 222 C45.92425781 221.24074219 46.84851563 220.48148438 47.80078125 219.69921875 C68.95033641 201.42145608 83.54751768 173.95769517 86 146 C87.64059024 113.44205835 80.0026505 83.73853173 58 59 C57.31550781 58.17242187 56.63101563 57.34484375 55.92578125 56.4921875 C38.25062636 35.64791981 12.55143696 23.67708239 -14 19 C-14.76634766 18.82944092 -15.53269531 18.65888184 -16.32226562 18.4831543 C-56.45963545 11.24100852 -95.60332176 30.38243374 -122.33007812 59.12304688 Z " fill="#FCFEFC" transform="translate(295,117)"/>
<path d="M0 0 C6.3800341 3.11221175 8.27936684 11.06650701 10.91577148 17.23999023 C11.74777848 19.18231385 12.59501994 21.11749842 13.44335938 23.05273438 C13.97750422 24.29386597 14.5107383 25.53539001 15.04296875 26.77734375 C15.52660889 27.89874756 16.01024902 29.02015137 16.50854492 30.17553711 C17.53480908 33.16922361 17.97743634 35.12779599 17.5625 38.25 C15.82838142 40.48289516 14.16733312 42.3902173 12.1875 44.375 C8.1005318 48.57879728 8.1005318 48.57879728 4.5625 53.25 C5.71536879 64.73065169 19.08475165 76.59768987 27.421875 83.60546875 C33.82841765 88.52728345 40.79215873 92.51284176 47.9375 96.25 C49.07960938 96.848125 50.22171875 97.44625 51.3984375 98.0625 C54.40009544 99.37449203 54.40009544 99.37449203 57.125 99.3671875 C60.89685924 97.63841868 62.78823785 94.67728114 65.1875 91.375 C66.13638466 90.10554619 67.08685582 88.83727639 68.0390625 87.5703125 C68.45236816 87.00586426 68.86567383 86.44141602 69.29150391 85.85986328 C69.71093262 85.3286084 70.13036133 84.79735352 70.5625 84.25 C71.19744385 83.37384033 71.19744385 83.37384033 71.84521484 82.47998047 C73.5625 81.25 73.5625 81.25 76.32128906 81.38305664 C79.88119189 82.33524216 83.0605987 83.60907454 86.421875 85.12109375 C87.05232727 85.40348404 87.68277954 85.68587433 88.33233643 85.9768219 C89.6548826 86.57109831 90.97589218 87.16880521 92.29541016 87.76977539 C94.31673919 88.68942872 96.3434024 89.59642744 98.37109375 90.50195312 C108.28210802 94.96960802 108.28210802 94.96960802 110.5625 97.25 C111.42698965 106.32714138 109.16084511 114.48015406 103.375 121.625 C96.28585675 129.01709809 87.50339586 132.20931067 77.4375 132.5625 C45.80191865 131.69813985 17.51399367 110.38578697 -3.84765625 88.81640625 C-17.84047467 73.78708276 -32.05982442 53.71436482 -32 32.4375 C-31.99830811 31.56528809 -31.99661621 30.69307617 -31.99487305 29.79443359 C-31.78416968 22.19079033 -29.82118062 16.52283822 -25.4375 10.25 C-24.81101563 9.31994141 -24.81101563 9.31994141 -24.171875 8.37109375 C-17.50599114 -0.49453178 -10.60354415 -2.31350054 0 0 Z " fill="#FDFEFD" transform="translate(221.4375,189.75)"/>
</svg>
